# xmcd
#
# Track frame offsets:
# 150
# 15347
# 31247
# 46595
# 61142
# 79842
# 95657
# 109595
# 126740
# 147617
# 164555
# 179197
# 196732
# 210902
# 222097
# 237264
# 251510
#
# Disc length: 3607 seconds
#
#
# Revision: 1
# Processed by: cddbd v1.5.1PL0 Copyright (c) Steve Scherf et al.
# Submitted via: FreeRIP 2.90 
#
DISCID=ed0e1511
DTITLE=Norah Jones - Feels Like Home #1/2
DYEAR=2004
DGENRE=Jazz
TTITLE0=Sunrise
TTITLE1=What Am I to You?
TTITLE2=Those Sweet Words
TTITLE3=Carnival Town
TTITLE4=In the Morning
TTITLE5=Be Here to Love Me
TTITLE6=Creepin' In
TTITLE7=Toes
TTITLE8=Humble Me
TTITLE9=Above Ground
TTITLE10=The Long Way Home
TTITLE11=The Prettiest Thing
TTITLE12=Don't Miss You at All
TTITLE13=Seven Years
TTITLE14=Come Away With Me
TTITLE15=Don't Know Why
TTITLE16=Nightingale
EXTD=YEAR: 2004
EXTT0=
EXTT1=
EXTT2=
EXTT3=
EXTT4=
EXTT5=
EXTT6=
EXTT7=
EXTT8=
EXTT9=
EXTT10=
EXTT11=
EXTT12=
EXTT13=
EXTT14=
EXTT15=
EXTT16=
PLAYORDER=
